<svg xmlns="http://www.w3.org/2000/svg" width="24" height="24" viewBox="0 0 24 24" fill="#262425">
  <path d="M12 10.8c-1.087-2.114-4.046-6.053-6.798-7.995C2.566.944 1.561 1.266.902 1.565.139 1.908 0 3.08 0 3.768c0 .69.378 5.65.624 6.479.815 2.736 3.713 3.66 6.383 3.364.136-.02.275-.039.415-.056-.138.022-.276.04-.415.056-3.912.58-7.387 2.005-2.845 7.09 5.235 5.543 6.545-1.2 7.838-5.174.273-.838.415-1.467.415-1.467s.142.63.415 1.467c1.293 3.975 2.603 10.718 7.838 5.174 4.542-5.085 1.067-6.51-2.845-7.09a9.857 9.857 0 01-.415-.056c.14.017.279.036.415.056 2.67.296 5.568-.628 6.383-3.364.246-.828.624-5.79.624-6.479 0-.688-.139-1.86-.902-2.203-.659-.3-1.664-.62-4.3 1.24C16.046 4.748 13.087 8.687 12 10.8z"/>
</svg>
